<?xml version="1.0" encoding="UTF-8"?>
<svg id="Capa_1" xmlns="http://www.w3.org/2000/svg" version="1.1" viewBox="150 150 750 400">
  <!-- Generator: Adobe Illustrator 29.2.1, SVG Export Plug-In . SVG Version: 2.1.0 Build 116)  -->
  <defs>
    <style>
      .st0 {
        fill: #fff;
      }
    </style>
  </defs>

  <g id="_x38_">
    <path class="st0" d="M386.21,500.29c6.53-27.18,16.85-54.42,21.46-81.53-52.42-87.04,2.06-209.56,102.63-228.41,205.57-38.12,267.94,256.19,64.43,304.43-37.9,8.54-72.84-.51-107.35-15.42-27.05,6.85-54.08,14.65-81.16,20.92ZM544.4,471.55c172.84-6.18,170.31-256.35-2.79-258.53-81.38-.35-145.16,82.32-123.79,160.53,18.09,59.63,26.1,19.66,6.51,88.1-.51,1.86-.5,1.87,1.34,1.39,15.11-3.94,30.23-7.86,45.32-11.88,23.29,10.14,46.19,21.62,73.42,20.38Z"/>
    <path class="st0" d="M462.36,301.99c-.8-16.34,17.11-44.78,37.84-34.65,10.19,8.89,10.88,25.32,17,37.13.87,2.32.71,4.49-.46,6.69-3.18,7.66-16.38,12.97-11.94,22.36,11.68,21.18,28.39,37.09,50.12,47.81,11.58,7.3,18.19-8.8,25.12-15.56,4.62-5.99,12.5,1.04,17.66,3.14,6.71,5.37,27.59,9.84,26.44,19.28.02,17.2-14.04,29.59-30.31,32.78-25.71,3.44-50.8-11.41-71.76-24.85-26.94-21.82-58.9-57.52-59.71-94.14Z"/>
  </g>
</svg>