<?xml version="1.0" encoding="UTF-8"?>
<svg id="Capa_1" xmlns="http://www.w3.org/2000/svg" version="1.1" viewBox="0 0 3000 3000">
  <!-- Generator: Adobe Illustrator 29.2.1, SVG Export Plug-In . SVG Version: 2.1.0 Build 116)  -->
  <defs>
    <style>
      .st0 {
        fill: #fff;
      }
    </style>
  </defs>
  <rect x="-.35" y=".44" width="3000" height="3000" fill="none"/>
  <path class="st0" d="M1052.95,1528.62c14.47,22.76,32.54,45.07,53.38,66.44,37.82,38.84,84.37,74.18,134.62,103.28,201.59,116.73,373.52,90.78,484.92,12.57,56.56-39.68,97.51-92.46,118.59-146.39,19.78-50.58,21.78-101.42,1.99-141.28-24.66-49.63-85.56-84.55-191.44-84.19-45.18.14-97.99,7.84-158.86,24.9-57.3,16.04-121.14,40.35-191.78,74.35-93.58,45.08-177.22,74.25-251.43,90.33M2178.72,1549.73c-6.51,110.74-58.45,200.09-112.18,287.12,98.2-40.39,169.9-94.18,217.98-156.27,58.59-75.65,82.44-164.57,76.73-256.85-5.88-94.42-42.59-192.84-104.82-285.12-93.37-138.37-243.27-261.87-432.29-337.23-95.57-38.11-196.64-64.09-297.93-77.51-102.13-13.55-204.25-14.36-300.95-2.07-89.84,11.45-176.66,33.76-255.32,68.16-72.26,31.59-137.5,73.34-191.75,126.25-64.19,62.69-106.75,133.61-127.13,203.45-14.71,50.54-17.76,100.48-8.86,146.01,8.57,43.99,28.5,83.95,59.99,116.21,29.39,30.16,69.13,53.93,119.39,68.61,33.21,9.63,71.56,14.15,115.4,12.33-16.98-61.57-17.83-118.27-5.57-169.68,14.22-59.47,45.71-110.88,89.87-153.79,42.73-41.5,97.3-74.98,159.39-100.06,148.7-60.03,343.15-72.15,519.63-30.01,131.48,31.41,263.59,102.93,355.38,205.27,80.8,90.11,130.77,203.83,123.03,335.2ZM1949.5,1873.73c12.54-21.57,25.74-42.93,39.01-64.37,51.45-83.11,103.67-167.45,109.38-264.39,6.33-107.69-35.23-201.62-102.45-276.57-80.48-89.73-197.2-152.66-313.83-180.51-160.58-38.35-336.75-27.63-470.81,26.51-52.53,21.22-98.13,48.99-133.12,82.93-33.52,32.57-57.23,70.89-67.63,114.49-9.91,41.43-8.05,88.57,8.44,141.25,72.11-13.69,155.43-41.78,250.69-87.66,75.23-36.25,143.56-62.2,205.13-79.46,67.77-18.98,128.01-27.56,180.71-27.74,141.46-.46,226.22,53.13,264.01,129.2,30.36,61.11,28.79,135.25.87,206.6-26.62,68.01-77.54,134.1-147.41,183.17-40.45,28.4-87.28,51.2-139.36,65.45,40.73,17.13,83.31,29.07,126.77,35.73,62.59,9.6,126.78,8.23,189.58-4.63ZM1949.92,2168.48c-5.36-1.65-11.42-2.52-18-2.52-2.95,0-4.94.07-6.03.18-1.26.1-3.18.42-5.78.94-14.18,2.77-26.55,10.37-35.27,21.01-8.54,10.41-13.69,23.85-13.69,38.63,0,16.78,6.8,31.97,17.79,42.97,11,11,26.2,17.79,42.98,17.79s31.98-6.8,42.97-17.79c11-11,17.8-26.2,17.8-42.97,0-10.3-2.52-20-7-28.44-4.8-9-11.56-16.6-19.65-22.06-4.94-3.33-10.36-5.96-16.11-7.74ZM1954.22,2086.66c6.44,1.05,12.86,2.56,19.12,4.48,13.66,4.17,26.45,10.37,38,18.18,19.3,13.1,35.17,30.57,45.95,50.96,10.54,19.86,16.53,42.48,16.53,66.44,0,39.19-15.9,74.67-41.57,100.34-25.67,25.67-61.15,41.57-100.34,41.57s-74.67-15.9-100.34-41.57c-25.66-25.67-41.54-61.15-41.54-100.34,0-34.01,12.12-65.35,32.33-89.97,13.45-16.32,30.4-29.59,49.73-38.63,2.35-48.58,14.58-93.16,32.33-135.68-52.4,5.36-105,4.03-156.55-3.89-89.77-13.76-176.55-47.31-253.71-99.64-89.38-2.63-188.49-29.56-293.77-90.53-56.42-32.64-109-72.67-152.07-116.91-33.37-34.25-61.22-71.23-81.01-109.62-64.16,5.68-120.09.28-168.21-13.73-64.44-18.81-116.03-49.98-154.9-89.84-42.9-43.95-69.98-98.03-81.57-157.42-11.29-57.82-7.6-120.66,10.78-183.73,24.17-82.83,73.83-166.18,148.35-238.92,61.43-59.93,134.88-107.03,215.81-142.44,85.77-37.47,180.09-61.74,277.51-74.14,103.67-13.2,212.8-12.4,321.58,2.03,107.76,14.29,215.39,41.96,317.27,82.58,204.95,81.74,367.88,216.12,469.69,367.03,70.15,104.05,111.65,216.4,118.42,325.68,6.93,111.34-22.18,218.96-93.52,311.07-66.96,86.47-170.8,158.41-316.63,205.55-9.63,3.12-19.3,5.99-29,8.62-24.34,45.95-43.19,92.81-48.69,142.47Z"/>
</svg>